<?xml version="1.0" encoding="UTF-8"?>
<svg width="512px" height="512px" viewBox="0 0 512 512" version="1.1" xmlns="http://www.w3.org/2000/svg" xmlns:xlink="http://www.w3.org/1999/xlink">
    <!-- Generator: Sketch 41.2 (35397) - http://www.bohemiancoding.com/sketch -->
    <title>001-bicycle</title>
    <desc>Created with Sketch.</desc>
    <defs></defs>
    <g id="Page-1" stroke="none" stroke-width="1" fill="none" fill-rule="evenodd">
        <g id="001-bicycle">
            <circle id="Oval" fill="#FEAF77" cx="255.9" cy="256" r="255.9"></circle>
            <path d="M96.6,223.1 C47,223.1 6.7,263.4 6.7,313 C6.7,362.6 47,402.9 96.6,402.9 C146.2,402.9 186.5,362.6 186.5,313 C186.6,263.4 146.3,223.1 96.6,223.1 Z M96.6,391.4 C53.4,391.4 18.3,356.4 18.3,313.1 C18.3,269.9 53.3,234.8 96.6,234.8 C139.8,234.8 174.9,269.8 174.9,313.1 C175,356.2 139.9,391.4 96.6,391.4 Z" id="Shape" fill="#FEFEFE"></path>
            <path d="M96.6,216.4 C43.3,216.4 0,259.7 0,313 C0,366.3 43.3,409.6 96.6,409.6 C149.9,409.6 193.2,366.3 193.2,313 C193.3,259.7 150,216.4 96.6,216.4 Z M96.6,403 C47,403 6.7,362.7 6.7,313.1 C6.7,263.4 47,223.1 96.6,223.1 C146.2,223.1 186.5,263.4 186.5,313 C186.6,362.7 146.3,403 96.6,403 Z" id="Shape" fill="#596366"></path>
            <path d="M415.4,223.1 C365.8,223.1 325.5,263.4 325.5,313 C325.5,362.6 365.8,402.9 415.4,402.9 C465,402.9 505.3,362.6 505.3,313 C505.3,263.4 465,223.1 415.4,223.1 Z M415.4,391.4 C372.2,391.4 337.1,356.4 337.1,313.1 C337.1,269.9 372.1,234.8 415.4,234.8 C458.6,234.8 493.7,269.8 493.7,313.1 C493.7,356.2 458.7,391.4 415.4,391.4 Z" id="Shape" fill="#FEFEFE"></path>
            <path d="M415.4,216.4 C362.1,216.4 318.8,259.7 318.8,313 C318.8,366.3 362.1,409.6 415.4,409.6 C468.7,409.6 512,366.3 512,313 C512,259.7 468.7,216.4 415.4,216.4 Z M415.4,403 C365.8,403 325.5,362.7 325.5,313.1 C325.5,263.5 365.8,223.2 415.4,223.2 C465,223.2 505.3,263.5 505.3,313.1 C505.3,362.7 465,403 415.4,403 Z" id="Shape" fill="#596366"></path>
            <polygon id="Shape" fill="#666666" points="252.4 341.9 415.4 327.7 415.2 324.2 252.2 338.6"></polygon>
            <g id="Group" transform="translate(79.000000, 295.000000)" fill="#6B7F9E">
                <path d="M336.4,0.5 C346,0.5 353.8,8.3 353.8,17.9 C353.8,27.5 346,35.3 336.4,35.3 C326.8,35.3 319,27.5 319,17.9 C319,8.3 326.8,0.5 336.4,0.5 Z" id="Shape"></path>
                <path d="M17.6,0.5 C27.2,0.5 35,8.3 35,17.9 C35,27.5 27.2,35.3 17.6,35.3 C8,35.3 0.2,27.5 0.2,17.9 C0.2,8.3 8,0.5 17.6,0.5 Z" id="Shape"></path>
            </g>
            <path d="M91.6,310.1 C90.2,317.3 100.2,320.1 103.3,314.2 L170.3,126.5 L158.6,122.4 L91.6,310.1 Z" id="Shape" fill="#FEFEFE"></path>
            <g id="Group" transform="translate(306.000000, 60.000000)" fill="#5FDC68">
                <path d="M174.5,17.9 C51.8,-45.6 36.5,87 111.3,75.2 C145.6,69.6 154.7,22.6 174.5,17.9 Z" id="Shape"></path>
                <path d="M0.2,22.1 C89.7,29.5 53.9,100.3 19.8,70.8 C3.1,56.3 10.4,30.4 0.2,22.1 Z" id="Shape"></path>
            </g>
            <g id="Group" transform="translate(122.000000, 76.000000)" fill="#FEFEFE">
                <path d="M231.1,99.1 L226.4,96.3 C240.1,43.2 209.7,26.7 209.5,26.7 C232.9,41.1 242.4,66.8 231.1,99.1 Z" id="Shape"></path>
                <path d="M342.6,1.5 C271.2,-3.1 252.4,47.6 232.7,98.3 L225.1,96.9 C242.6,49.2 265.8,-9.2 342.7,1.5 L342.7,1.5 L342.6,1.5 Z" id="Shape"></path>
                <polygon id="Shape" points="118 246.8 129.2 252.3 238.2 88.3 227 82.7"></polygon>
                <polygon id="Shape" points="0.2 51.1 41.1 51.1 41.1 62.5 0.2 62.5"></polygon>
            </g>
            <polygon id="Shape" fill="#596366" points="252.2 284.1 415.4 298 415.2 301.3 252.1 287.5"></polygon>
            <g id="Group" transform="translate(142.000000, 159.000000)" fill="#FEFEFE">
                <polygon id="Shape" points="112 163.8 100.9 169.3 0.4 20.1 11.5 14.6"></polygon>
                <polygon id="Shape" points="183.2 36.7 191.7 25.7 3.7 0.9 3.7 13.3"></polygon>
            </g>
            <path d="M229.2,268.9 L248.7,268.9 C250.8,268.9 252.6,267.2 252.6,265.1 L252.6,265.1 C252.6,263 250.9,261.3 248.7,261.3 L229.2,261.3 C227.1,261.3 225.3,263 225.3,265.1 L225.3,265.1 C225.3,267.2 227,268.9 229.2,268.9 Z" id="Shape" fill="#6B7F9E"></path>
            <path d="M250.1,318 L250.1,318 C251.8,317.9 252.9,316.2 252.5,314.3 L241.8,265.7 C241.5,262 235,262.5 235.5,266.2 L246.2,314.8 C246.6,316.7 248.4,318.2 250.1,318 Z" id="Shape" fill="#FEFEFE"></path>
            <g id="Group" transform="translate(94.000000, 127.000000)" fill="#6B7F9E">
                <path d="M155,157.1 C170.9,157.1 184,170 184,186.1 C184,202 171.1,215.1 155,215.1 C139.1,215.1 126,202.2 126,186.1 C126,170.1 138.9,157.1 155,157.1 Z" id="Shape"></path>
                <path d="M215.5,36 C209.8,36.1 210.4,23.8 221.7,24.2 C232.6,24.6 302.9,22.9 293.2,32.9 C283.9,42.6 279.8,49.1 263.8,46.9 C248,44.7 235.6,34.5 215.4,36.1 L215.5,36.1 L215.5,36 L215.5,36 Z" id="Shape"></path>
                <path d="M68.7,50.6 C71.7,50.6 74.1,53 74.1,56 C74.1,59 71.7,61.4 68.7,61.4 L30.8,61.4 C16.3,61.4 7,53.4 2.8,43.1 C1.2,39.2 0.4,34.9 0.4,30.9 C0.4,26.7 1.2,22.5 2.8,18.7 C6.9,8.4 16.2,0.4 30.8,0.4 C33.8,0.4 36.2,2.8 36.2,5.8 C36.2,8.8 33.8,11.2 30.8,11.2 C21.5,11.2 15.4,16.2 12.9,22.7 C11.8,25.3 11.3,28.1 11.3,31 C11.3,33.9 11.8,36.7 12.9,39.3 C15.5,45.8 21.5,50.8 30.8,50.8 L68.7,50.8 L68.7,50.6 Z" id="Shape"></path>
            </g>
            <path d="M249,291.8 C260.7,291.8 270.2,301.3 270.2,313 C270.2,324.7 260.7,334.2 249,334.2 C237.3,334.2 227.8,324.7 227.8,313 C227.8,301.3 237.2,291.8 249,291.8 Z" id="Shape" fill="#83CF8F"></path>
            <g id="Group" transform="translate(245.000000, 192.000000)" fill="#FEFEFE">
                <path d="M174.7,116.8 C178.8,123.6 169.4,131.3 163.5,122.3 L85.3,5.8 L96.5,0.3 L174.7,116.8 Z" id="Shape" stroke="#FEFEFE" stroke-width="17.344"></path>
                <path d="M2.9,115.9 L2.9,115.9 C1.2,116 0.1,117.7 0.5,119.6 L11.2,168.2 C11.5,171.9 18,171.4 17.5,167.7 L6.9,119.1 C6.5,117.2 4.6,115.8 2.9,115.9 Z" id="Shape"></path>
            </g>
            <path d="M268.7,357 L249.2,357 C247.1,357 245.3,358.7 245.3,360.8 L245.3,360.8 C245.3,362.9 247,364.6 249.2,364.6 L268.7,364.6 C270.8,364.6 272.6,362.9 272.6,360.8 L272.6,360.8 C272.7,358.7 270.9,357 268.7,357 Z" id="Shape" fill="#6B7F9E"></path>
        </g>
    </g>
</svg>