<?xml version="1.0" encoding="UTF-8"?>
<svg width="512px" height="512px" viewBox="0 0 512 512" version="1.1" xmlns="http://www.w3.org/2000/svg" xmlns:xlink="http://www.w3.org/1999/xlink">
    <!-- Generator: Sketch 41.2 (35397) - http://www.bohemiancoding.com/sketch -->
    <title>003-badge</title>
    <desc>Created with Sketch.</desc>
    <defs></defs>
    <g id="Page-1" stroke="none" stroke-width="1" fill="none" fill-rule="evenodd">
        <g id="003-badge">
            <g id="Layer_1">
                <path d="M256.001,0 C397.385,0 512,114.615 512,256.001 C512,397.385 397.385,512 256.001,512 C114.617,512 0,397.385 0,256.001 C0,114.615 114.615,0 256.001,0 Z" id="Shape" fill="#64989A"></path>
                <g id="Group" transform="translate(153.000000, 290.000000)" fill="#FFFFFF">
                    <polygon id="Shape" points="148.556 0.088 90.394 0.088 158.348 154.915 171.425 118.456 216.51 154.915 148.559 0.088"></polygon>
                    <polygon id="Shape" points="68.619 0.088 126.781 0.088 58.827 154.915 45.75 118.456 0.665 154.915 68.616 0.088"></polygon>
                </g>
                <path d="M299.713,78.793 C304.27,70.351 313.608,65.046 323.75,66.113 C337.153,67.515 346.875,79.536 345.466,92.928 C345.016,97.216 343.477,101.128 341.156,104.417 C341.784,105.006 342.408,105.599 343.021,106.199 C350.621,100.319 361.328,99.263 370.167,104.369 C381.842,111.1 385.835,126.038 379.099,137.704 C376.949,141.426 373.966,144.367 370.52,146.429 C370.855,147.223 371.184,148.021 371.503,148.823 C380.83,146.556 391.02,149.947 397.013,158.198 C404.939,169.097 402.512,184.367 391.618,192.285 C388.132,194.816 384.203,196.289 380.203,196.77 L380.13,199.35 C389.582,201.065 397.524,208.313 399.643,218.292 C402.45,231.475 394.023,244.435 380.851,247.242 C376.644,248.133 372.464,247.884 368.623,246.702 L367.499,249.033 C375.423,254.45 379.725,264.291 377.602,274.263 C374.806,287.448 361.837,295.862 348.663,293.066 C344.445,292.169 340.719,290.231 337.687,287.578 C337.039,288.142 336.384,288.7 335.722,289.249 C340.776,297.422 340.705,308.175 334.708,316.43 C326.788,327.337 311.52,329.75 300.619,321.832 C297.142,319.305 294.529,316.031 292.836,312.386 C292.014,312.637 291.187,312.882 290.353,313.114 C291.63,322.626 287.196,332.406 278.363,337.504 C266.693,344.244 251.764,340.24 245.028,328.572 C242.874,324.846 241.822,320.787 241.763,316.767 C240.903,316.661 240.052,316.544 239.199,316.423 C236.498,325.639 228.466,332.772 218.323,333.837 C204.92,335.248 192.912,325.518 191.501,312.119 C191.051,307.839 191.739,303.699 193.318,299.999 C192.584,299.556 191.852,299.102 191.124,298.643 C184.913,305.968 174.663,309.222 164.961,306.067 C152.144,301.904 145.133,288.133 149.293,275.32 C150.625,271.221 152.94,267.715 155.892,264.979 C155.396,264.276 154.911,263.566 154.432,262.851 C145.776,267.016 135.091,265.825 127.511,258.995 C117.492,249.979 116.687,234.545 125.703,224.531 C128.583,221.334 132.119,219.076 135.92,217.778 C135.761,216.934 135.605,216.082 135.461,215.234 C125.861,215.514 116.59,210.081 112.44,200.761 C106.957,188.451 112.497,174.023 124.807,168.541 C128.736,166.793 132.881,166.166 136.883,166.524 L137.494,164.01 C128.613,160.359 122.36,151.625 122.36,141.43 C122.36,127.954 133.287,117.027 146.766,117.027 C151.074,117.027 155.122,118.147 158.637,120.107 C159.157,119.421 159.684,118.74 160.218,118.063 C153.581,111.124 151.407,100.59 155.559,91.263 C161.038,78.951 175.473,73.417 187.776,78.896 C191.705,80.647 194.948,83.31 197.358,86.525 C198.112,86.108 198.871,85.698 199.633,85.297 C196.403,76.257 198.705,65.762 206.289,58.936 C216.297,49.918 231.737,50.736 240.746,60.744 C243.628,63.945 245.506,67.703 246.401,71.625 C247.256,71.552 248.116,71.486 248.976,71.431 C249.695,61.851 256.067,53.195 265.777,50.037 C278.592,45.87 292.363,52.897 296.521,65.705 C297.853,69.793 298.04,73.978 297.266,77.918 L299.713,78.793 Z" id="Shape" fill="#FEAF77"></path>
                <path d="M256.001,82.744 C317.893,82.744 368.067,132.918 368.067,194.81 C368.067,256.705 317.893,306.878 256.001,306.878 C194.106,306.878 143.933,256.704 143.933,194.81 C143.933,132.917 194.106,82.744 256.001,82.744 Z" id="Shape" fill="#FFFFFF"></path>
                <path d="M256.001,95.15 C311.043,95.15 355.66,139.767 355.66,194.809 C355.66,249.851 311.043,294.471 256.001,294.471 C200.957,294.471 156.339,249.854 156.339,194.809 C156.34,139.768 200.957,95.15 256.001,95.15 Z" id="Shape" fill="#FEAF77"></path>
                <polygon id="Shape" fill="#FFFFFF" points="256.001 120.193 272.612 174.49 326.701 174.38 282.884 207.828 299.694 262.052 256 228.432 212.306 262.052 229.116 207.828 185.3 174.38 239.389 174.49 256.003 120.193 256.001 120.193"></polygon>
            </g>
        </g>
    </g>
</svg>