<?xml version="1.0" encoding="UTF-8"?>
<svg width="512px" height="512px" viewBox="0 0 512 512" version="1.1" xmlns="http://www.w3.org/2000/svg" xmlns:xlink="http://www.w3.org/1999/xlink">
    <!-- Generator: Sketch 41.2 (35397) - http://www.bohemiancoding.com/sketch -->
    <title>001-target</title>
    <desc>Created with Sketch.</desc>
    <defs></defs>
    <g id="Page-1" stroke="none" stroke-width="1" fill="none" fill-rule="evenodd">
        <g id="001-target">
            <g id="Layer_1">
                <path d="M256.002,0 C397.386,0 512.001,114.615 512.001,255.999 C512.001,397.383 397.386,512 256.002,512 C114.615,512 0.001,397.385 0.001,255.999 C0.001,114.615 114.615,0 256.002,0 Z" id="Shape" fill="#FEAF77"></path>
                <path d="M180.777,397.956 L156.4,502.861 C154.951,509.193 148.643,513.151 142.311,511.702 C135.976,510.253 132.021,503.943 133.47,497.613 L160.74,380.249 C167.286,386.687 173.985,392.598 180.775,397.958 L180.777,397.956 Z M239.721,429.757 L239.721,429.757 L252.366,475.045 C254.095,481.3 250.426,487.774 244.171,489.502 C237.916,491.231 231.442,487.56 229.714,481.307 L212.174,418.478 C221.401,423.302 230.631,427.084 239.724,429.758 L239.721,429.758 L239.721,429.757 Z" id="Shape" fill="#666666"></path>
                <path d="M306.442,181.345 C366.502,271.643 372.585,379.656 320.031,422.6 C267.477,465.544 176.182,427.155 116.122,336.858 C56.062,246.558 49.976,138.547 102.533,95.603 C155.086,52.659 246.382,91.05 306.442,181.348 L306.442,181.345 Z" id="Shape" fill="#15BDB1"></path>
                <path d="M307.65,179.724 C366.24,268.608 372.177,374.928 320.906,417.2 C269.637,459.471 180.578,421.685 121.989,332.8 C63.399,243.918 57.464,137.598 108.733,95.326 C160.002,53.054 249.063,90.844 307.65,179.726 L307.65,179.724 Z" id="Shape" fill="#64989A"></path>
                <g id="Group" transform="translate(107.000000, 97.000000)" fill="#FFFFFF">
                    <path d="M192.484,87.141 C240.541,162.188 245.445,251.641 203.442,286.945 C161.439,322.249 88.43,290.034 40.378,214.99 C-7.679,139.943 -12.583,50.49 29.42,15.186 C71.422,-20.12 144.432,12.095 192.487,87.141 L192.484,87.141 L192.484,87.141 Z M174.086,109.981 L174.086,109.981 C150.205,72.682 113.916,56.668 93.04,74.218 C72.162,91.764 74.599,136.225 98.486,173.527 C122.367,210.824 158.659,226.838 179.532,209.29 C200.41,191.741 197.974,147.28 174.086,109.981 Z M169.882,116.963 L169.882,116.963 C152.199,89.345 125.329,77.49 109.87,90.481 C94.414,103.474 96.218,136.397 113.903,164.015 C131.586,191.633 158.456,203.491 173.915,190.497 C189.37,177.504 187.567,144.581 169.882,116.963 Z M182.886,97.367 L182.886,97.367 C148.301,43.353 95.75,20.164 65.517,45.575 C35.286,70.986 38.818,135.372 73.404,189.387 C107.992,243.401 160.542,266.588 190.775,241.179 C221.006,215.767 217.473,151.381 182.886,97.367 Z" id="Shape"></path>
                    <path d="M155.711,130.023 C163.26,141.815 164.032,155.871 157.433,161.416 C150.834,166.963 139.362,161.901 131.813,150.109 C124.264,138.317 123.49,124.264 130.089,118.716 C136.69,113.169 148.159,118.231 155.711,130.023 Z" id="Shape"></path>
                </g>
                <path d="M277.611,213.69 L489.758,90.187 C493.224,88.17 497.711,89.354 499.728,92.82 L499.728,92.822 C501.745,96.286 500.561,100.775 497.095,102.792 L284.946,226.292 C281.48,228.312 276.993,227.125 274.976,223.662 L274.974,223.66 C272.957,220.194 274.143,215.707 277.609,213.692 L277.611,213.69 Z" id="Shape" fill="#0E7886"></path>
                <g id="Group" transform="translate(253.000000, 66.000000)" fill="#FF5B61">
                    <path d="M157.357,87.284 L245.511,35.964 L259,59.137 L189.28,99.726 L157.357,87.284 Z M150.019,74.681 L150.019,74.681 L238.176,23.361 L224.684,0.188 L154.964,40.777 L150.021,74.679 L150.019,74.681 Z" id="Shape"></path>
                    <polygon id="Shape" points="0.521 170.149 20.149 128.29 46.614 173.75"></polygon>
                </g>
            </g>
        </g>
    </g>
</svg>