<?xml version="1.0" encoding="UTF-8"?>
<svg width="360px" height="361px" viewBox="0 0 360 361" version="1.1" xmlns="http://www.w3.org/2000/svg" xmlns:xlink="http://www.w3.org/1999/xlink">
    <!-- Generator: Sketch 41.2 (35397) - http://www.bohemiancoding.com/sketch -->
    <title>social-1_logo-linkedin</title>
    <desc>Created with Sketch.</desc>
    <defs></defs>
    <g id="Page-1" stroke="none" stroke-width="1" fill="none" fill-rule="evenodd">
        <g id="social-1_logo-linkedin" fill="#64989A">
            <g id="Layer_1">
                <path d="M346.334375,0 L14.665625,0 C6.76875,0 0,6.76875 0,14.665625 L0,345.20625 C0,354.23125 6.76875,361 14.665625,361 L345.20625,361 C353.103125,361 359.871875,354.23125 359.871875,346.334375 L359.871875,14.665625 C361,6.76875 354.23125,0 346.334375,0 Z M107.171875,307.978125 L53.021875,307.978125 L53.021875,135.375 L107.171875,135.375 L107.171875,307.978125 Z M80.096875,111.684375 C63.175,111.684375 48.509375,98.146875 48.509375,80.096875 C48.509375,63.175 62.046875,48.509375 80.096875,48.509375 C97.01875,48.509375 111.684375,62.046875 111.684375,80.096875 C111.684375,98.146875 97.01875,111.684375 80.096875,111.684375 Z M307.978125,307.978125 L254.95625,307.978125 L254.95625,224.496875 C254.95625,204.190625 254.95625,179.371875 226.753125,179.371875 C198.55,179.371875 195.165625,200.80625 195.165625,223.36875 L195.165625,309.10625 L142.14375,309.10625 L142.14375,135.375 L191.78125,135.375 L191.78125,159.065625 L192.909375,159.065625 C199.678125,145.528125 217.728125,130.8625 243.675,130.8625 C297.825,130.8625 307.978125,166.9625 307.978125,213.215625 L307.978125,307.978125 Z" id="Shape"></path>
            </g>
        </g>
    </g>
</svg>