<?xml version="1.0" encoding="UTF-8"?>
<svg width="35px" height="36px" viewBox="0 0 35 36" version="1.1" xmlns="http://www.w3.org/2000/svg" xmlns:xlink="http://www.w3.org/1999/xlink">
    <!-- Generator: Sketch 41.2 (35397) - http://www.bohemiancoding.com/sketch -->
    <title>clickky</title>
    <desc>Created with Sketch.</desc>
    <defs></defs>
    <g id="Page-1" stroke="none" stroke-width="1" fill="none" fill-rule="evenodd">
        <g id="clickky">
            <g id="Group">
                <path d="M16.31,1.06 L16.45,2.06 C11.98,11.15 17.68,10.41 17.68,10.41 L18.4,10.28 L18.51,10.5 C29.1,9.3 34.89,14.81 34.89,14.81 C35.66,1.77 16.31,1.06 16.31,1.06 Z" id="Shape" fill="#F8B829"></path>
                <path d="M9.66,31.77 C9.21,34.77 11.66,36.51 12.05,35.55 C13.13,34.14 13.51,34.55 14.05,32.43 C14.2471456,32.1667265 14.4754776,31.9283211 14.73,31.72 C15.2766667,31.1533333 15.8033333,30.5733333 16.31,29.98 C17.8044359,28.2894124 19.0810549,26.4181576 20.11,24.41 C21.2516127,22.3823402 21.6678407,20.0260662 21.29,17.73 C20.8809926,16.5685106 20.2976511,15.4760099 19.56,14.49 C19.3348165,13.9737984 19.2321382,13.4124903 19.26,12.85 C19.235196,12.008566 18.9829296,11.1895642 18.53,10.48 C18.0570377,9.97001448 17.8242024,9.28242275 17.89,8.59 C18.02,7.83 18.02,7.08 18.13,6.32 C18.199273,4.8998598 17.939162,3.48293957 17.37,2.18 C17.37,2.18 16.67,0.94 16.05,1.25 C13.7946862,-0.177928052 10.9097225,-0.142649964 8.69,1.34 C8.69,1.34 -5.63,10.49 7.28,28.07 C6.89,30.35 8.28,32.7 9.36,34.26" id="Shape" fill="#005D86"></path>
                <path d="M16.25,11.7 L14.31,2.86 C14.31,2.86 13.17,-0.54 10.17,3.75 L9.67,3.09 C6.91,7 3.17,11.69 4,16.77 L4,16.77 C4.24435369,18.6679125 5.31258998,20.3617256 6.92,21.4 C9.33386594,23.0762693 12.5977538,22.8035794 14.7,20.75 C16.26,19.45 17.53,16.81 16.25,11.7 Z" id="Shape" fill="#FFFFFF"></path>
                <path d="M18.51,10.53 C18.51,10.53 27.77,9.09 34.89,14.84 C34.89,14.84 28.19,6.05 17.51,7.68 C17.52,7.68 16.75,9.84 18.51,10.53 Z" id="Shape" fill="#F19320"></path>
                <path d="M34.89,14.84 C35.0781945,12.571779 34.5046047,10.3055715 33.26,8.4 C33.16,8.27 32.39,9.95 32.38,10.1 C32.3390921,10.8007184 32.5098156,11.4975492 32.87,12.1 C33.38,13.04 34.62,13.81 34.87,14.82" id="Shape" fill="#E95253"></path>
                <path d="M0,27.54 C1.30888734,28.0381095 2.73709477,28.1321622 4.1,27.81 C6.01,28.07 7.01,28.67 9.29,28.93 C12.08,28.93 14.85,28.63 17.62,28.37 C18.52,28.29 20.52,28.18 21.28,28.89 C21.72,29.3 21.59,30.41 21.6,30.99 C19.9469422,30.3596867 18.2063989,29.9886407 16.44,29.89 C14.44,29.89 12.37,29.98 10.34,29.96 C8.95532379,29.9640786 7.5730874,29.8435931 6.21,29.6 C4.94,29.36 3.69,29.03 2.42,28.77 C1.5,28.57 0.38,28.41 0,27.54 Z" id="Shape" fill="#9B5F48"></path>
                <path d="M17.83,29.34 C17.83,29.66 17.55,30.34 17.29,30.34 L17.29,30.34 C17.03,30.34 16.75,29.67 16.75,29.34 L16.75,28.21 C16.75,27.89 16.95,27.57 17.21,27.57 L17.21,27.57 C17.5336385,27.6194794 17.7814817,27.8838455 17.81,28.21 L17.83,29.34 Z" id="Shape" fill="#969595"></path>
                <path d="M16.75,29.5 C16.75,29.75 16.55,30.27 16.34,30.27 L16.34,30.27 C16.13,30.27 15.93,29.75 15.93,29.5 L15.93,28.61 C15.93,28.36 16.08,28.11 16.29,28.11 L16.29,28.11 C16.5381637,28.1485479 16.7233168,28.3589492 16.73,28.61 L16.75,29.5 Z" id="Shape" fill="#838383"></path>
                <path d="M6.83,29.34 C6.83,29.66 7.11,30.34 7.37,30.34 L7.37,30.34 C7.63,30.34 7.91,29.67 7.91,29.34 L7.91,28.21 C7.91,27.89 7.71,27.57 7.45,27.57 L7.45,27.57 C7.12636152,27.6194794 6.8785183,27.8838455 6.85,28.21 L6.83,29.34 Z" id="Shape" fill="#969595"></path>
                <path d="M7.91,29.5 C7.91,29.75 8.11,30.27 8.32,30.27 L8.32,30.27 C8.53,30.27 8.73,29.75 8.73,29.5 L8.73,28.61 C8.73,28.36 8.58,28.11 8.37,28.11 L8.37,28.11 C8.12183632,28.1485479 7.93668319,28.3589492 7.93,28.61 L7.91,29.5 Z" id="Shape" fill="#838383"></path>
                <path d="M18.29,7.48 L18.29,7.48 C18.53,6.91 18.97,5.14 17.75,2.09 C17.53,1.62 16.98,0.53 15.81,1.09 C15.64,1.35 17.92,2.78 17.45,7.82 C17.45,7.82 16.86,9.93 18.51,10.52 C18.2644633,10.001167 18.1380458,9.43399666 18.14,8.86 C18.1050734,8.39469571 18.1559171,7.92693369 18.29,7.48 L18.29,7.48 Z M18.18,7.68 L18.18,7.68 L18.19,7.68 L18.18,7.68 Z" id="Shape" fill="#003B55"></path>
                <path d="M16.31,5.62 C16.75,7.98 15.57,9.32 13.23,9.35 C11.43,9.35 8.81,8.97 8.56,6.77 C8.35,4.86 9.56,2.27 11.5,1.69 C14.19,0.87 15.89,3.3 16.32,5.62 L16.31,5.62 Z" id="Shape" fill="#F8B829"></path>
                <path d="M14.88,5.45 C15.067773,6.01480042 14.9483546,6.63660634 14.5647163,7.09166665 C14.181078,7.54672696 13.5884182,7.76956706 13,7.68 C11.86,7.68 10.27,7.41 10.17,6.02 C10.0601993,4.7229195 10.7994029,3.50303152 12,3 C13.61,2.55 14.61,4 14.85,5.41 L14.88,5.45 Z" id="Shape" fill="#005D86"></path>
                <path d="M14,5.15 C14,5.92596007 13.3709601,6.555 12.595,6.555 C11.8190399,6.555 11.19,5.92596007 11.19,5.15 C11.19,4.37403993 11.8190399,3.745 12.595,3.745 C13.3709601,3.745 14,4.37403993 14,5.15 Z" id="Shape" fill="#151410"></path>
                <path d="M12.79,4.26 C12.79,4.51 12.57,4.26 12.57,4.26 C12.57,4.26 12.79,4 12.79,4.26 Z" id="Shape" fill="#FFFFFF"></path>
                <path d="M12,4.25 C11.86,4.25 11.83,4.4 11.81,4.56 C11.7336245,4.58906995 11.6745247,4.65116724 11.649266,4.72888645 C11.6240073,4.80660567 11.6353077,4.89158303 11.68,4.96 C11.68,4.96 12.36,4.32 12.41,4.36 C12.2952036,4.26667932 12.1460919,4.22667375 12,4.25 L12,4.25 Z" id="Shape" fill="#FFFFFF"></path>
            </g>
        </g>
    </g>
</svg>