<?xml version="1.0" encoding="UTF-8"?>
<svg width="352px" height="353px" viewBox="0 0 352 353" version="1.1" xmlns="http://www.w3.org/2000/svg" xmlns:xlink="http://www.w3.org/1999/xlink">
    <!-- Generator: Sketch 41.2 (35397) - http://www.bohemiancoding.com/sketch -->
    <title>social-1_logo-facebook</title>
    <desc>Created with Sketch.</desc>
    <defs></defs>
    <g id="Page-1" stroke="none" stroke-width="1" fill="none" fill-rule="evenodd">
        <g id="social-1_logo-facebook" fill="#64989A">
            <g id="Layer_1">
                <path d="M338.659375,0 L14.340625,0 C6.61875,0 0,6.61875 0,14.340625 L0,337.55625 C0,346.38125 6.61875,353 14.340625,353 L187.53125,353 L187.53125,220.625 L143.40625,220.625 L143.40625,165.46875 L187.53125,165.46875 L187.53125,121.34375 C187.53125,76.115625 216.2125,52.95 257.028125,52.95 C276.884375,52.95 293.43125,55.15625 297.84375,55.15625 L297.84375,102.590625 L269.1625,102.590625 C247.1,102.590625 241.584375,113.621875 241.584375,129.065625 L241.584375,165.46875 L296.740625,165.46875 L285.709375,220.625 L241.584375,220.625 L242.6875,353 L337.55625,353 C345.278125,353 351.896875,346.38125 351.896875,338.659375 L351.896875,14.340625 C353,6.61875 346.38125,0 338.659375,0 Z" id="White_2_"></path>
            </g>
        </g>
    </g>
</svg>