<?xml version="1.0" encoding="UTF-8"?>
<svg width="512px" height="512px" viewBox="0 0 512 512" version="1.1" xmlns="http://www.w3.org/2000/svg" xmlns:xlink="http://www.w3.org/1999/xlink">
    <!-- Generator: Sketch 41.2 (35397) - http://www.bohemiancoding.com/sketch -->
    <title>004-injury</title>
    <desc>Created with Sketch.</desc>
    <defs></defs>
    <g id="Page-1" stroke="none" stroke-width="1" fill="none" fill-rule="evenodd">
        <g id="004-injury">
            <g id="Layer_1">
                <circle id="Oval" fill="#64989A" cx="256" cy="256" r="256"></circle>
                <path d="M254.074,268.84 C253.325,271.565 252.615,275.672 252.485,281.597 C252.194,294.918 249.996,316.585 247.653,324.048 C245.312,331.512 245.893,339.124 244.651,342.126 C243.404,345.128 242.969,353.105 242.014,355.229 C241.063,357.354 246.993,378.725 243.33,391.311 C239.672,403.901 238.646,410.927 238.646,412.978 C238.646,415.029 235.426,432.594 236.452,436.617 C237.477,440.644 237.99,445.476 237.477,447.084 C236.964,448.696 239.528,457.038 237.186,459.601 C234.845,462.164 232.72,464.575 230.6,470.506 C228.475,476.436 227.085,478.044 227.085,478.044 C227.085,478.044 223.058,482.436 219.621,482.436 C216.18,482.436 215.52,481.046 215.52,481.046 C215.52,481.046 212.374,481.411 211.493,480.095 C211.493,480.095 208.565,479.07 208.565,478.118 C208.565,478.118 207.322,477.679 206.883,475.924 C206.444,474.168 205.895,469.153 210.282,464.872 C214.674,460.59 215.736,460.151 215.736,460.151 L221.26,449.828 C221.26,449.828 220.452,411.474 219.283,406.495 C218.114,401.521 215.477,377.655 217.084,363.167 C218.696,348.673 215.915,333.888 215.915,333.888 C215.915,333.888 207.421,309.293 209.619,287.774 C211.813,266.255 218.986,237.707 219.425,230.829 C219.864,223.947 222.94,217.07 222.94,217.07 C222.94,217.07 220.599,207.994 220.889,198.627 C221.184,189.255 220.012,175.935 216.497,168.91 C212.982,161.885 212.982,158.517 212.982,158.517 L202.881,182.669 C202.881,182.669 191.755,210.631 182.239,222.34 C172.725,234.053 173.893,240.931 173.893,240.931 C173.893,240.931 171.112,255.864 170.378,258.644 C169.648,261.425 164.813,275.969 162.836,276.63 C160.859,277.291 160.273,274.215 161.811,270.118 C163.349,266.017 164.592,260.894 164.592,260.894 L163.331,261.042 C163.331,261.042 159.488,273.282 159.081,274.82 C158.679,276.358 157.617,281.554 155.275,281.332 C152.934,281.115 155.09,274.233 155.09,274.233 L158.711,260.875 L156.992,260.353 C156.992,260.353 154.05,270.709 153.759,272.136 C153.469,273.563 152.239,281.794 149.898,282.053 C147.557,282.311 147.704,279.457 147.958,278.538 C148.213,277.624 149.417,268.802 150.041,266.681 C150.665,264.556 153.006,258.192 153.006,258.192 L151.944,257.531 C151.944,257.531 148.133,266.5 147.441,270.228 C146.748,273.956 145.866,277.146 143.926,277.146 C141.986,277.146 142.203,273.52 142.864,270.597 C143.525,267.669 146.047,255.152 146.998,253.031 C147.949,250.906 149.483,245.747 149.483,245.747 C149.483,245.747 146.462,247.155 145.695,247.193 C144.928,247.23 140.735,251.091 138.721,251.276 C137.151,251.419 136.204,249.803 135.862,249.086 C135.769,248.887 135.811,248.666 135.964,248.513 C137.174,247.349 142.425,242.301 143.072,241.945 C143.802,241.543 153.062,234.403 159.136,233.308 C159.136,233.308 169.603,206.15 170.041,201.027 C170.48,195.905 175.966,180.238 182.701,169.111 C182.701,169.111 185.629,150.738 193.094,143.126 C193.094,143.126 192.581,116.263 205.315,108.064 C218.053,99.866 222.002,104.111 224.931,102.942 C227.86,101.773 241.032,94.305 241.032,94.305 L241.032,78.205 C241.032,78.205 240.007,76.154 239.789,73.447 L239.571,70.74 C239.571,70.74 237.446,73.96 235.618,71.47 C233.789,68.981 233.203,62.103 234.006,60.274 C234.809,58.445 237.008,59.613 237.008,59.613 C237.008,59.613 235.359,47.429 238.504,41.059 C246.074,25.739 265.889,25.739 273.459,41.059 C276.609,47.429 274.955,59.613 274.955,59.613 C274.955,59.613 277.149,58.444 277.957,60.274 C278.76,62.103 278.174,68.985 276.345,71.47 C274.516,73.959 272.392,70.74 272.392,70.74 C272.392,70.74 272.392,70.74 272.174,73.447 C271.957,76.154 270.931,78.205 270.931,78.205 L270.931,94.306 C270.931,94.306 284.103,101.77 287.033,102.943 C289.962,104.116 293.915,99.867 306.649,108.065 C319.383,116.263 318.87,143.127 318.87,143.127 C326.334,150.739 329.263,169.112 329.263,169.112 C335.997,180.238 341.484,195.901 341.923,201.028 C342.362,206.15 352.828,233.309 352.828,233.309 C358.902,234.408 368.162,241.544 368.892,241.946 C369.539,242.301 374.79,247.35 376,248.514 C376.157,248.667 376.199,248.888 376.102,249.087 C375.761,249.803 374.818,251.419 373.243,251.277 C371.229,251.092 367.04,247.236 366.269,247.194 C365.502,247.157 362.481,245.748 362.481,245.748 C362.481,245.748 364.019,250.907 364.966,253.032 C365.917,255.152 368.439,267.673 369.1,270.598 C369.761,273.526 370.074,276.418 368.135,276.418 C366.195,276.418 365.41,273.993 364.523,270.233 C363.636,266.473 360.02,257.536 360.02,257.536 L358.958,258.197 C358.958,258.197 361.299,264.567 361.923,266.686 C362.547,268.811 363.752,277.628 364.006,278.543 C364.264,279.457 364.408,282.312 362.066,282.058 C359.725,281.804 358.496,273.569 358.205,272.141 C357.914,270.713 354.972,260.358 354.972,260.358 L353.253,260.88 L356.874,274.238 C356.874,274.238 359.036,281.12 356.689,281.337 C354.348,281.559 353.285,276.363 352.883,274.825 C352.481,273.287 348.633,261.047 348.633,261.047 L347.372,260.899 C347.372,260.899 348.615,266.021 350.153,270.123 C351.691,274.22 351.104,277.296 349.128,276.635 C347.151,275.974 342.32,261.43 341.586,258.649 C340.856,255.868 338.071,240.936 338.071,240.936 C338.071,240.936 339.24,234.058 329.725,222.345 C320.21,210.632 309.083,182.674 309.083,182.674 L298.982,158.522 C298.982,158.522 298.982,161.889 295.467,168.915 C291.952,175.941 290.783,189.26 291.075,198.632 C291.366,207.999 289.024,217.075 289.024,217.075 C289.024,217.075 292.1,223.957 292.539,230.834 C292.978,237.716 300.151,266.26 302.345,287.779 C304.539,309.298 296.049,333.893 296.049,333.893 C296.049,333.893 293.268,348.678 294.88,363.172 C296.492,377.666 293.855,401.526 292.681,406.5 C291.508,411.479 290.704,449.833 290.704,449.833 L296.228,460.156 C296.228,460.156 297.29,460.595 301.682,464.877 C306.074,469.159 305.521,474.175 305.081,475.929 C304.642,477.689 303.399,478.123 303.399,478.123 C303.399,479.074 300.471,480.1 300.471,480.1 C299.594,481.416 296.444,481.051 296.444,481.051 C296.444,481.051 295.783,482.441 292.343,482.441 C288.902,482.441 284.879,478.049 284.879,478.049 C284.879,478.049 283.489,476.437 281.364,470.511 C279.244,464.586 277.119,462.169 274.778,459.606 C272.437,457.043 275,448.701 274.487,447.089 C273.974,445.477 274.487,440.646 275.512,436.622 C276.537,432.595 273.318,415.029 273.318,412.983 C273.318,410.932 272.293,403.907 268.634,391.316 C264.976,378.726 270.902,357.354 269.95,355.234 C268.999,353.109 268.56,345.133 267.313,342.131 C266.07,339.129 266.652,331.517 264.311,324.053 C261.97,316.589 259.771,294.922 259.479,281.602 C259.349,275.677 258.639,271.57 257.89,268.845 C257.649,267.968 256.879,267.376 255.964,267.376 C255.054,267.376 254.282,267.963 254.038,268.845 L254.074,268.84 Z" id="Shape" fill="#FEAF77"></path>
                <g id="Group" transform="translate(171.000000, 78.000000)" fill="#FFFFFF">
                    <circle id="Oval" cx="26.993" cy="81.748" r="11.492"></circle>
                    <path d="M26.993,55.732 C34.161,55.732 40.664,58.642 45.38,63.353 L45.385,63.358 L45.39,63.363 C50.101,68.079 53.011,74.577 53.011,81.75 C53.011,88.932 50.097,95.44 45.39,100.146 C40.683,104.853 34.176,107.767 26.994,107.767 C19.816,107.767 13.318,104.853 8.607,100.146 L8.598,100.137 C3.891,95.43 0.977,88.927 0.977,81.75 C0.977,74.568 3.891,68.06 8.598,63.354 C13.303,58.646 19.81,55.732 26.993,55.732 Z M41.686,67.048 C37.935,63.293 32.739,60.974 26.994,60.974 C21.257,60.974 16.061,63.301 12.302,67.061 C8.542,70.821 6.219,76.017 6.219,81.753 C6.219,87.494 8.542,92.691 12.297,96.45 C16.057,100.205 21.253,102.528 26.994,102.528 C32.731,102.528 37.927,100.201 41.686,96.445 C45.446,92.685 47.773,87.489 47.773,81.753 C47.773,76.007 45.45,70.815 41.699,67.061 L41.69,67.052 L41.686,67.048 Z" id="Shape"></path>
                    <circle id="Oval" cx="108.115" cy="77.746" r="9.335"></circle>
                    <path d="M108.117,56.619 C113.942,56.619 119.22,58.983 123.05,62.808 L123.055,62.813 L123.06,62.818 C126.885,66.647 129.249,71.926 129.249,77.751 C129.249,83.585 126.885,88.868 123.06,92.693 C119.235,96.518 113.957,98.882 108.118,98.882 C102.289,98.882 97.01,96.518 93.185,92.693 L93.176,92.684 C89.351,88.859 86.987,83.581 86.987,77.751 C86.987,71.917 89.351,66.634 93.176,62.809 C97.001,58.984 102.283,56.619 108.117,56.619 Z M120.048,65.81 C117,62.762 112.782,60.878 108.117,60.878 C103.457,60.878 99.239,62.767 96.186,65.82 C93.133,68.873 91.244,73.09 91.244,77.751 C91.244,82.416 93.133,86.638 96.181,89.691 C99.234,92.739 103.456,94.628 108.121,94.628 C112.781,94.628 116.999,92.739 120.052,89.686 C123.105,86.633 124.994,82.411 124.994,77.755 C124.994,73.09 123.11,68.868 120.062,65.824 L120.053,65.815 L120.048,65.81 Z" id="Shape"></path>
                    <circle id="Oval" cx="52.803" cy="277.296" r="8.416"></circle>
                    <path d="M52.807,258.246 C58.059,258.246 62.82,260.38 66.271,263.83 L66.276,263.835 L66.281,263.84 C69.731,267.29 71.865,272.052 71.865,277.304 C71.865,282.565 69.731,287.331 66.281,290.777 C62.836,294.222 58.069,296.356 52.808,296.356 C47.552,296.356 42.79,294.222 39.339,290.777 L39.33,290.768 C35.885,287.323 33.751,282.556 33.751,277.299 C33.751,272.038 35.885,267.272 39.33,263.826 C42.775,260.376 47.542,258.242 52.803,258.242 L52.807,258.246 Z M63.569,266.533 C60.82,263.784 57.015,262.085 52.807,262.085 C48.604,262.085 44.798,263.79 42.045,266.542 C39.292,269.295 37.588,273.1 37.588,277.304 C37.588,281.507 39.293,285.313 42.04,288.07 C44.793,290.819 48.598,292.522 52.806,292.522 C57.009,292.522 60.815,290.817 63.568,288.065 C66.321,285.313 68.025,281.507 68.025,277.303 C68.025,273.095 66.325,269.29 63.577,266.541 L63.569,266.533 Z" id="Shape"></path>
                    <circle id="Oval" cx="97.855" cy="15.497" r="6.785"></circle>
                    <path d="M97.854,0.14 C102.085,0.14 105.923,1.859 108.708,4.638 L108.713,4.643 L108.718,4.648 C111.499,7.429 113.216,11.267 113.216,15.502 C113.216,19.742 111.497,23.58 108.718,26.361 C105.937,29.142 102.099,30.859 97.859,30.859 C93.623,30.859 89.786,29.14 87.005,26.361 L86.996,26.352 C84.215,23.571 82.498,19.738 82.498,15.498 C82.498,11.258 84.217,7.42 86.996,4.639 C89.776,1.859 93.614,0.14 97.854,0.14 Z M106.528,6.819 C104.311,4.602 101.248,3.23 97.854,3.23 C94.469,3.23 91.402,4.601 89.18,6.823 C86.963,9.04 85.587,12.107 85.587,15.497 C85.587,18.887 86.958,21.954 89.176,24.171 C91.393,26.388 94.465,27.76 97.85,27.76 C101.235,27.76 104.302,26.389 106.524,24.167 C108.746,21.945 110.117,18.878 110.117,15.493 C110.117,12.103 108.745,9.036 106.528,6.819 L106.523,6.814 L106.528,6.819 Z" id="Shape"></path>
                </g>
            </g>
        </g>
    </g>
</svg>