<?xml version="1.0" encoding="UTF-8"?>
<svg width="512px" height="512px" viewBox="0 0 512 512" version="1.1" xmlns="http://www.w3.org/2000/svg" xmlns:xlink="http://www.w3.org/1999/xlink">
    <!-- Generator: Sketch 41.2 (35397) - http://www.bohemiancoding.com/sketch -->
    <title>010-library</title>
    <desc>Created with Sketch.</desc>
    <defs></defs>
    <g id="Page-1" stroke="none" stroke-width="1" fill="none" fill-rule="evenodd">
        <g id="010-library">
            <g id="Layer_1">
                <path d="M256.001,512 C397,512 512,397 512,256.001 C512,115.002 397,0 256.001,0 C115,0 0,115.002 0,256.001 C0,397 115,512 256.001,512 Z" id="Shape" fill="#FEAF77"></path>
                <polygon id="Shape" fill="#64989A" points="153.12 418.12 215.311 363.491 215.311 80.89 207.219 80.89 202.912 84.177 162.03 84.177 162.017 80.835 155.292 80.89 93.098 135.516 153.117 135.516"></polygon>
                <polygon id="Shape" fill="#FFFFFF" points="101.667 135.519 146.059 135.519 202.912 84.177 158.52 84.177"></polygon>
                <polygon id="Shape" fill="#FF757C" points="168.834 121.717 161.469 121.604 146.062 135.519 101.67 135.519 117.801 120.948 109.822 120.83 93.1 135.519 93.1 418.12 153.119 418.12 168.831 404.32 168.831 121.717"></polygon>
                <polygon id="Shape" fill="#64989A" points="249.685 418.12 311.874 363.491 311.874 80.89 303.782 80.887 299.478 84.179 258.599 84.179 258.586 80.837 251.858 80.887 189.664 135.516 249.683 135.516"></polygon>
                <polygon id="Shape" fill="#FFFFFF" points="198.233 135.519 242.624 135.519 299.477 84.177 255.086 84.177"></polygon>
                <polygon id="Shape" fill="#FF757C" points="258.032 121.604 242.625 135.519 198.234 135.519 214.365 120.948 206.386 120.83 189.664 135.519 189.664 418.12 249.683 418.12 265.395 404.32 265.395 121.717"></polygon>
                <polygon id="Shape" fill="#64989A" points="380.942 70.85 334.895 139.635 407.589 412.725 453.636 343.94 380.942 70.85 373.123 72.933 369.808 77.216 330.303 87.732 329.432 84.508 322.945 86.289 276.896 155.074 334.893 139.635"></polygon>
                <polygon id="Shape" fill="#FFFFFF" points="285.174 152.871 328.073 141.453 369.805 77.216 326.909 88.634 285.175 152.874 285.175 152.871"></polygon>
                <polygon id="Shape" fill="#FF757C" points="346.529 122.255 339.381 124.044 328.073 141.453 285.177 152.871 297.02 134.644 289.28 136.58 276.899 155.077 349.593 428.167 407.593 412.728 419.226 395.353 346.532 122.258"></polygon>
                <g id="Group" transform="translate(361.000000, 129.000000)" fill="#FFFFFF">
                    <polygon id="Shape" points="33.411 17.759 29.76 3.865 4.028 45.938 7.677 59.832 33.411 17.757"></polygon>
                    <polygon id="Shape" points="19.512 9.869 17.574 0.841 0.207 29.24 2.148 38.266 19.515 9.87 19.512 9.87"></polygon>
                </g>
            </g>
        </g>
    </g>
</svg>