<?xml version="1.0" encoding="UTF-8"?>
<svg width="512px" height="512px" viewBox="0 0 512 512" version="1.1" xmlns="http://www.w3.org/2000/svg" xmlns:xlink="http://www.w3.org/1999/xlink">
    <!-- Generator: Sketch 41.2 (35397) - http://www.bohemiancoding.com/sketch -->
    <title>008-ereader</title>
    <desc>Created with Sketch.</desc>
    <defs></defs>
    <g id="Page-1" stroke="none" stroke-width="1" fill="none" fill-rule="evenodd">
        <g id="008-ereader">
            <g id="Layer_1">
                <path d="M256.001,0.001 C397.385,0.001 512,114.616 512,256.001 C512,397.386 397.385,511.999 256.001,511.999 C114.616,511.999 0,397.385 0,256.001 C0,114.617 114.616,0.001 256.001,0.001 Z" id="Shape" fill="#64989A"></path>
                <polygon id="Shape" fill="#FEAF77" points="40.133 27.61 471.866 27.61 471.866 310.28 40.133 310.28"></polygon>
                <polygon id="Shape" fill="#DFE1E3" points="463.387 27.61 256 27.61 256 298.689 463.387 298.689"></polygon>
                <path d="M456.042,27.61 C389.363,27.61 325.676,-0.824 256,27.61 L256,281.534 L456.042,281.534 L456.042,27.61 Z" id="Shape" fill="#FFFFFF"></path>
                <polygon id="Shape" fill="#DFE1E3" points="48.613 27.61 256 27.61 256 298.689 48.613 298.689"></polygon>
                <path d="M55.956,27.61 C122.635,27.61 218.998,-0.329 256.001,27.61 L256.001,281.534 L55.956,281.534 L55.956,27.61 Z" id="Shape" fill="#FFFFFF"></path>
                <polygon id="Shape" fill="#ECF0F1" points="252.609 27.61 259.39 27.61 259.39 281.534 252.609 281.534 252.609 27.61"></polygon>
                <polygon id="Shape" fill="#FBB429" points="73.05 49.05 150.255 49.05 150.255 59.657 73.05 59.657"></polygon>
                <path d="M73.05,139.981 L227.461,139.981 L227.461,144.998 L73.05,144.998 L73.05,139.981 Z M278.815,139.981 L278.815,139.981 L433.229,139.981 L433.229,144.998 L278.815,144.998 L278.815,139.981 Z M278.815,73.806 L278.815,73.806 L433.229,73.806 L433.229,78.824 L278.815,78.824 L278.815,73.806 Z M278.815,124.399 L278.815,124.399 L346.424,124.399 L346.424,129.416 L278.815,129.416 L278.815,124.399 Z M278.815,114.282 L278.815,114.282 L433.229,114.282 L433.229,119.299 L278.815,119.299 L278.815,114.282 Z M278.815,104.161 L278.815,104.161 L433.229,104.161 L433.229,109.178 L278.815,109.178 L278.815,104.161 Z M278.815,94.044 L278.815,94.044 L346.424,94.044 L346.424,99.061 L278.815,99.061 L278.815,94.044 Z M278.815,83.926 L278.815,83.926 L433.229,83.926 L433.229,88.942 L278.815,88.942 L278.815,83.926 Z M278.815,190.574 L278.815,190.574 L331.958,190.574 L331.958,195.591 L278.815,195.591 L278.815,190.574 L278.815,190.574 Z M278.815,180.455 L278.815,180.455 L433.229,180.455 L433.229,185.471 L278.815,185.471 L278.815,180.455 Z M278.815,170.336 L278.815,170.336 L433.229,170.336 L433.229,175.354 L278.815,175.354 L278.815,170.336 Z M278.815,160.218 L278.815,160.218 L433.229,160.218 L433.229,165.235 L278.815,165.235 L278.815,160.218 Z M278.815,150.099 L278.815,150.099 L433.229,150.099 L433.229,155.116 L278.815,155.116 L278.815,150.099 Z M73.05,73.806 L73.05,73.806 L227.461,73.806 L227.461,78.824 L73.05,78.824 L73.05,73.806 Z M73.05,124.399 L73.05,124.399 L140.66,124.399 L140.66,129.416 L73.05,129.416 L73.05,124.399 Z M73.05,114.282 L73.05,114.282 L227.461,114.282 L227.461,119.299 L73.05,119.299 L73.05,114.282 Z M73.05,104.161 L73.05,104.161 L227.461,104.161 L227.461,109.178 L73.05,109.178 L73.05,104.161 Z M73.05,94.044 L73.05,94.044 L227.461,94.044 L227.461,99.061 L73.05,99.061 L73.05,94.044 Z M73.05,83.926 L73.05,83.926 L227.461,83.926 L227.461,88.942 L73.05,88.942 L73.05,83.926 Z M73.05,190.574 L73.05,190.574 L126.194,190.574 L126.194,195.591 L73.05,195.591 L73.05,190.574 Z M73.05,180.455 L73.05,180.455 L227.461,180.455 L227.461,185.471 L73.05,185.471 L73.05,180.455 Z M73.05,170.336 L73.05,170.336 L227.461,170.336 L227.461,175.354 L73.05,175.354 L73.05,170.336 Z M73.05,160.218 L73.05,160.218 L227.461,160.218 L227.461,165.235 L73.05,165.235 L73.05,160.218 Z M73.05,150.099 L73.05,150.099 L227.461,150.099 L227.461,155.116 L73.05,155.116 L73.05,150.099 Z" id="Shape" fill="#DFE1E3"></path>
                <polygon id="Shape" fill="#FEAF77" points="294.74 16.526 315.631 14.731 315.631 123.178 305.118 115.528 294.74 123.178 294.74 16.526"></polygon>
                <path d="M357.964,290.987 L357.964,316.116 C358.389,321.453 356.502,324.749 353.452,326.701 L353.445,326.701 C350.579,328.533 346.75,329.038 342.952,328.928 L342.952,328.934 L268.565,328.934 L268.497,328.927 C265.571,328.808 263.543,329.317 262.31,330.377 L262.305,330.375 C261.154,331.367 260.63,332.974 260.651,335.107 L260.658,335.121 L260.658,354.165 L257.122,354.165 L257.122,335.12 L257.129,335.12 C257.1,331.928 258.008,329.42 260.002,327.703 L260.002,327.696 C261.905,326.059 264.722,325.256 268.566,325.403 L268.566,325.397 L342.953,325.397 L343.001,325.404 C346.203,325.503 349.363,325.127 351.549,323.734 L351.547,323.729 C353.539,322.454 354.759,320.164 354.436,316.317 L354.429,316.173 L354.429,290.986 L357.964,290.986 L357.964,290.987 Z" id="Shape" fill="#FFFFFF"></path>
                <path d="M87.07,351.876 L424.93,351.876 C434.083,351.876 441.567,359.363 441.567,368.514 L441.567,499.776 L70.433,499.776 L70.433,368.514 C70.433,359.363 77.92,351.876 87.07,351.876 L87.07,351.876 Z" id="Shape" fill="#FEAF77"></path>
                <path d="M87.07,351.876 L424.928,351.876 C431.058,351.876 436.434,355.23 439.324,360.193 L72.68,360.193 C75.568,355.23 80.944,351.876 87.07,351.876 Z" id="Shape" fill="#EC4B53"></path>
                <g id="Group" transform="translate(100.000000, 339.000000)" fill="#FFFFFF">
                    <path d="M151.962,0.632 L169.669,0.632 C171.04,0.632 172.157,1.753 172.157,3.118 L172.157,12.826 L149.473,12.826 L149.473,3.118 C149.473,1.753 150.59,0.632 151.962,0.632 L151.962,0.632 Z" id="Shape"></path>
                    <path d="M32.99,45.078 L53.536,45.078 L53.536,65.625 L32.99,65.625 L32.99,45.078 Z M0.985,126.112 L0.985,126.112 L21.529,126.112 L21.529,146.659 L0.985,146.659 L0.985,126.112 Z M290.469,98.984 L290.469,98.984 L311.016,98.984 L311.016,146.659 L290.469,146.659 L290.469,98.984 Z M258.467,126.112 L258.467,126.112 L279.015,126.112 L279.015,146.659 L258.467,146.659 L258.467,126.112 Z M226.465,126.112 L226.465,126.112 L247.012,126.112 L247.012,146.659 L226.465,146.659 L226.465,126.112 Z M192.999,126.112 L192.999,126.112 L213.547,126.112 L213.547,146.659 L192.999,146.659 L192.999,126.112 Z M160.998,126.112 L160.998,126.112 L181.545,126.112 L181.545,146.659 L160.998,146.659 L160.998,126.112 Z M64.989,126.112 L64.989,126.112 L151.776,126.112 L151.776,146.659 L64.989,146.659 L64.989,126.112 Z M32.989,126.112 L32.989,126.112 L53.535,126.112 L53.535,146.659 L32.989,146.659 L32.989,126.112 Z M0.985,99.102 L0.985,99.102 L53.409,99.102 L53.409,119.646 L0.985,119.646 L0.985,99.102 L0.985,99.102 Z M258.467,99.102 L258.467,99.102 L279.015,99.102 L279.015,119.646 L258.467,119.646 L258.467,99.102 Z M226.465,99.102 L226.465,99.102 L247.012,99.102 L247.012,119.646 L226.465,119.646 L226.465,99.102 Z M192.999,99.102 L192.999,99.102 L213.547,99.102 L213.547,119.646 L192.999,119.646 L192.999,99.102 Z M160.998,99.102 L160.998,99.102 L181.545,99.102 L181.545,119.646 L160.998,119.646 L160.998,99.102 Z M128.994,99.102 L128.994,99.102 L149.54,99.102 L149.54,119.646 L128.994,119.646 L128.994,99.102 Z M96.993,99.102 L96.993,99.102 L117.54,99.102 L117.54,119.646 L96.993,119.646 L96.993,99.102 Z M64.989,99.102 L64.989,99.102 L85.533,99.102 L85.533,119.646 L64.989,119.646 L64.989,99.102 Z M0.985,72.091 L0.985,72.091 L21.529,72.091 L21.529,92.635 L0.985,92.635 L0.985,72.091 Z M290.469,72.091 L290.469,72.091 L311.016,72.091 L311.016,92.635 L290.469,92.635 L290.469,72.091 Z M258.467,72.091 L258.467,72.091 L279.015,72.091 L279.015,92.635 L258.467,92.635 L258.467,72.091 Z M226.464,72.091 L226.464,72.091 L247.011,72.091 L247.011,92.635 L226.464,92.635 L226.464,72.091 Z M161.799,72.091 L161.799,72.091 L213.546,72.091 L213.546,92.635 L161.799,92.635 L161.799,72.091 Z M128.994,72.091 L128.994,72.091 L149.54,72.091 L149.54,92.635 L128.994,92.635 L128.994,72.091 Z M96.993,72.091 L96.993,72.091 L117.54,72.091 L117.54,92.635 L96.993,92.635 L96.993,72.091 Z M64.989,72.091 L64.989,72.091 L85.533,72.091 L85.533,92.635 L64.989,92.635 L64.989,72.091 Z M32.989,72.091 L32.989,72.091 L53.535,72.091 L53.535,92.635 L32.989,92.635 L32.989,72.091 Z M0.985,45.078 L0.985,45.078 L21.529,45.078 L21.529,65.625 L0.985,65.625 L0.985,45.078 Z M290.469,45.078 L290.469,45.078 L311.016,45.078 L311.016,65.625 L290.469,65.625 L290.469,45.078 Z M258.466,45.078 L258.466,45.078 L279.014,45.078 L279.014,65.625 L258.466,65.625 L258.466,45.078 Z M226.464,45.078 L226.464,45.078 L247.011,45.078 L247.011,65.625 L226.464,65.625 L226.464,45.078 Z M192.998,45.078 L192.998,45.078 L213.546,45.078 L213.546,65.625 L192.998,65.625 L192.998,45.078 Z M160.997,45.078 L160.997,45.078 L181.544,45.078 L181.544,65.625 L160.997,65.625 L160.997,45.078 Z M128.994,45.078 L128.994,45.078 L149.54,45.078 L149.54,65.625 L128.994,65.625 L128.994,45.078 Z M96.993,45.078 L96.993,45.078 L117.54,45.078 L117.54,65.625 L96.993,65.625 L96.993,45.078 Z M64.989,45.078 L64.989,45.078 L85.533,45.078 L85.533,65.625 L64.989,65.625 L64.989,45.078 Z" id="Shape"></path>
                </g>
                <path d="M164.553,364.665 L180.106,364.665 C181.856,364.665 183.286,366.095 183.286,367.844 C183.286,369.596 181.856,371.03 180.106,371.03 L164.553,371.03 C162.801,371.03 161.372,369.596 161.372,367.844 C161.372,366.095 162.802,364.665 164.553,364.665 Z M193.296,364.665 L193.296,364.665 L208.845,364.665 C210.597,364.665 212.03,366.095 212.03,367.844 C212.03,369.596 210.597,371.03 208.845,371.03 L193.296,371.03 C191.544,371.03 190.112,369.596 190.112,367.844 C190.112,366.095 191.545,364.665 193.296,364.665 Z" id="Shape" fill="#FBB429"></path>
            </g>
        </g>
    </g>
</svg>