<?xml version="1.0" encoding="UTF-8"?>
<svg width="379px" height="378px" viewBox="0 0 379 378" version="1.1" xmlns="http://www.w3.org/2000/svg" xmlns:xlink="http://www.w3.org/1999/xlink">
    <!-- Generator: Sketch 41.2 (35397) - http://www.bohemiancoding.com/sketch -->
    <title>social-1_logo-skype</title>
    <desc>Created with Sketch.</desc>
    <defs></defs>
    <g id="Page-1" stroke="none" stroke-width="1" fill="none" fill-rule="evenodd">
        <g id="social-1_logo-skype">
            <g id="Layer_1">
                <path d="M157.9375,12.25 C156.75,12.25 156.75,11.0625 155.5625,11.0625 L153.1875,11.0625 L157.9375,12.25 Z" id="Shape" fill="#444444"></path>
                <path d="M14.25,154.75 L14.25,157.125 C14.25,158.3125 15.4375,158.3125 15.4375,159.5 L14.25,154.75 Z" id="Shape" fill="#444444"></path>
                <path d="M365.75,221.25 L365.75,218.875 C365.75,217.6875 364.5625,217.6875 364.5625,216.5 L365.75,221.25 Z" id="Shape" fill="#444444"></path>
                <path d="M219.6875,362.5625 C220.875,362.5625 220.875,363.75 222.0625,363.75 L224.4375,363.75 L219.6875,362.5625 Z" id="Shape" fill="#444444"></path>
                <path d="M366.9375,220.0625 L366.9375,222.4375 L365.75,218.875 C365.75,218.875 365.75,218.875 366.9375,220.0625 C369.3125,209.375 370.5,198.6875 370.5,188 C370.5,164.25 365.75,140.5 356.25,117.9375 C346.75,96.5625 334.875,77.5625 318.25,60.9375 C301.625,44.3125 282.625,31.25 261.25,22.9375 C237.5,12.25 213.75,7.5 190,7.5 C178.125,7.5 167.4375,8.6875 155.5625,11.0625 L155.5625,11.0625 C156.75,11.0625 156.75,12.25 157.9375,12.25 L154.375,12.25 L156.75,12.25 C141.3125,3.9375 124.6875,0.375 106.875,0.375 C78.375,-2 51.0625,9.875 30.875,30.0625 C10.6875,49.0625 0,76.375 0,104.875 C0,122.6875 4.75,140.5 13.0625,155.9375 L13.0625,153.5625 L14.25,157.125 C14.25,157.125 13.0625,155.9375 13.0625,154.75 C11.875,165.4375 10.6875,174.9375 10.6875,185.625 C10.6875,209.375 15.4375,233.125 24.9375,255.6875 C34.4375,277.0625 46.3125,296.0625 62.9375,312.6875 C79.5625,329.3125 98.5625,342.375 119.9375,350.6875 C142.5,361.375 166.25,366.125 190,366.125 C200.6875,366.125 211.375,364.9375 220.875,363.75 C219.6875,363.75 219.6875,362.5625 218.5,362.5625 L222.0625,363.75 L219.6875,363.75 C235.125,373.25 254.125,378 271.9375,378 C300.4375,378 326.5625,367.3125 346.75,347.125 C366.9375,326.9375 377.625,300.8125 377.625,272.3125 C380,253.3125 375.25,235.5 366.9375,220.0625 Z M191.1875,297.25 C127.0625,297.25 98.5625,266.375 98.5625,242.625 C98.5625,230.75 106.875,222.4375 119.9375,222.4375 C147.25,222.4375 140.125,261.625 191.1875,261.625 C217.3125,261.625 231.5625,247.375 231.5625,233.125 C231.5625,224.8125 226.8125,215.3125 210.1875,210.5625 L153.1875,196.3125 C108.0625,184.4375 99.75,160.6875 99.75,136.9375 C99.75,88.25 144.875,70.4375 187.625,70.4375 C226.8125,70.4375 273.125,91.8125 273.125,121.5 C273.125,133.375 262.4375,140.5 250.5625,140.5 C226.8125,140.5 231.5625,108.4375 185.25,108.4375 C161.5,108.4375 149.625,119.125 149.625,134.5625 C149.625,150 167.4375,154.75 184.0625,158.3125 L225.625,167.8125 C271.9375,178.5 283.8125,204.625 283.8125,230.75 C281.4375,267.5625 251.75,297.25 191.1875,297.25 Z" id="Shape" fill="#FEAF77"></path>
            </g>
        </g>
    </g>
</svg>