<?xml version="1.0" encoding="UTF-8"?>
<svg width="51px" height="20px" viewBox="0 0 51 20" version="1.1" xmlns="http://www.w3.org/2000/svg" xmlns:xlink="http://www.w3.org/1999/xlink">
    <!-- Generator: Sketch 41.2 (35397) - http://www.bohemiancoding.com/sketch -->
    <title>Group</title>
    <desc>Created with Sketch.</desc>
    <defs></defs>
    <g id="Page-1" stroke="none" stroke-width="1" fill="none" fill-rule="evenodd">
        <g id="Group">
            <path d="M8.28205128,0 L5.60439561,0 C2.92673993,0 0.622710623,1.99053572 0.622710623,5.84719869 C0.622710623,8.14875561 1.74358974,9.89047437 3.67399268,10.7613337 L0.0622710623,17.2305748 C-0.0622710623,17.4171876 0.0622710623,17.6038003 0.249084249,17.6038003 L1.93040293,17.6038003 C2.05494505,17.6038003 2.17948718,17.541596 2.24175824,17.4171876 L5.54212454,11.0723549 L6.72527472,11.0723549 L6.72527472,17.4171876 C6.72527472,17.4793918 6.78754578,17.6038003 6.91208791,17.6038003 L8.40659341,17.6038003 C8.53113553,17.6038003 8.5934066,17.541596 8.5934066,17.4171876 L8.5934066,0.248816965 C8.53113553,0.0622042413 8.46886447,0 8.28205128,0 L8.28205128,0 Z M6.72527472,9.57945316 L5.72893773,9.57945316 C1.43223443,9.57945316 1.74358974,1.49290179 5.54212454,1.49290179 L6.78754578,1.49290179 L6.78754578,9.57945316 L6.72527472,9.57945316 Z" id="Shape" fill="#FF0000"></path>
            <path d="M17.2490842,5.84719869 L15.7545787,5.84719869 C15.6300366,5.84719869 15.5677655,5.90940293 15.5677655,6.0338114 L15.5677655,10.5125168 L12.8278388,10.5125168 L12.8278388,6.0338114 C12.8278388,5.90940293 12.7655677,5.84719869 12.6410257,5.84719869 L11.2087913,5.84719869 C11.0842491,5.84719869 11.0219781,5.90940293 11.0219781,6.0338114 L11.0219781,17.4171876 C11.0219781,17.541596 11.0842491,17.6038003 11.2087913,17.6038003 L12.7032967,17.6038003 C12.8278388,17.6038003 12.8901098,17.541596 12.8901098,17.4171876 L12.8901098,11.9432143 L15.6300366,11.9432143 L15.6300366,17.4171876 C15.6300366,17.541596 15.6923077,17.6038003 15.8168498,17.6038003 L17.3113553,17.6038003 C17.4358974,17.6038003 17.4981685,17.541596 17.4981685,17.4171876 L17.4981685,6.0338114 C17.4358974,5.90940293 17.3736263,5.84719869 17.2490842,5.84719869 L17.2490842,5.84719869 Z M50.8754579,16.0486942 C50.8754579,15.98649 50.8131868,15.98649 50.7509157,15.98649 C50.1282051,15.98649 46.3296703,17.790413 46.3296703,11.8188059 C46.3296703,9.20622771 47.3260073,5.53617747 49.6923077,7.71332592 C49.7545787,7.77553016 49.8168498,7.77553016 49.8791209,7.77553016 C49.9413919,7.77553016 50.003663,7.71332592 50.0659341,7.58891744 L50.6886447,6.53144533 C50.7509157,6.46924109 50.7509157,6.40703686 50.7509157,6.34483262 C50.7509157,6.22042413 50.6263736,6.15821989 50.5018315,6.09601565 C46.3919414,4.04327568 44.2747252,7.83773441 44.2747252,12.2542355 C44.2747252,17.9770258 48.4468864,18.7856809 50.8131868,17.0439621 C50.9377289,16.9817579 50.9377289,16.8573494 50.9377289,16.7951452 L50.8754579,16.0486942 L50.8754579,16.0486942 Z M40.6630036,11.1345592 L43.5274725,5.97160716 C43.5897436,5.90940293 43.5274725,5.78499444 43.4652014,5.78499444 L42.032967,5.78499444 C41.5970696,5.78499444 41.4725274,5.90940293 41.3479853,6.22042413 C41.2234432,6.53144533 39.1062271,10.9479465 38.8571428,11.1345592 L38.8571428,5.97160716 C38.8571428,5.90940293 38.7948717,5.78499444 38.7326007,5.78499444 L37.1758242,5.78499444 C37.1135532,5.78499444 37.0512821,5.84719869 37.0512821,5.97160716 L37.0512821,17.4171876 C37.0512821,17.4793918 37.1135532,17.6038003 37.1758242,17.6038003 L38.7326007,17.6038003 C38.8571428,17.6038003 38.8571428,17.541596 38.8571428,17.4171876 L38.8571428,11.5077847 C39.043956,11.6321931 41.6593406,17.0439621 41.7216117,17.2305748 C41.8461538,17.4793918 42.0952381,17.6038003 42.4065934,17.6038003 L43.9633699,17.6038003 C44.0879121,17.6038003 44.0879121,17.541596 44.025641,17.4171876 L40.6630036,11.1345592 L40.6630036,11.1345592 Z M27.025641,16.1108985 L26.7142857,16.1108985 C26.3406593,16.1108985 26.2783883,15.98649 26.2783883,15.6754689 L26.2783883,5.97160716 C26.2783883,5.84719869 26.2161172,5.78499444 26.1538462,5.78499444 L21.3589743,5.78499444 C21.2344322,5.78499444 21.1721612,5.84719869 21.1721612,5.97160716 C21.1721612,8.5841853 21.2344322,12.9384822 19.4908425,16.1108985 L18.992674,16.1108985 C18.8681318,16.1108985 18.8058608,16.1731028 18.8058608,16.2975112 L18.8058608,19.7187445 C18.8058608,19.8431529 18.9304029,19.9053572 18.992674,19.9053572 L20.1135531,19.9053572 C20.3626373,19.9053572 20.4871795,19.7187445 20.4871795,19.5321317 L20.4871795,17.6038003 L25.5311355,17.6038003 L25.5311355,19.7187445 C25.5311355,19.7809488 25.5934066,19.9053572 25.7179487,19.9053572 L26.96337,19.9053572 C27.0879121,19.9053572 27.2747253,19.7809488 27.2747253,19.5321317 L27.2747253,16.2975112 C27.2124542,16.1731028 27.1501832,16.1108985 27.025641,16.1108985 L27.025641,16.1108985 Z M24.4102564,16.1108985 L20.9230769,16.1108985 C21.9194139,14.4935883 22.8534798,11.88101 22.8534798,7.27789623 L24.4102564,7.27789623 L24.4102564,16.1108985 L24.4102564,16.1108985 Z M31.8827839,5.53617747 C29.3296703,5.53617747 28.1465202,8.70859378 28.1465202,12.1920313 C28.1465202,17.9148215 32.1318682,18.7856809 34.8717949,17.1061664 C34.996337,17.0439621 34.996337,16.9817579 34.996337,16.9195536 L34.8095238,16.1108985 C34.8095238,16.0486942 34.7472528,15.98649 34.6227107,15.98649 C33.6263737,15.98649 30.1391942,17.7282088 30.1391942,12.0676228 C31.3846154,12.1920313 31.3846154,12.1920313 35.1208792,12.1920313 C35.0586081,9.3306362 34.7472528,5.53617747 31.8827839,5.53617747 L31.8827839,5.53617747 Z M30.2014652,10.7613337 C30.2014652,6.22042413 33.1904762,5.34956476 33.1904762,10.6369253 C31.8827839,10.6369253 31.3223443,10.6369253 30.2014652,10.7613337 L30.2014652,10.7613337 Z" id="Shape" fill="#000000"></path>
        </g>
    </g>
</svg>