<?xml version="1.0" encoding="UTF-8"?>
<svg width="384px" height="375px" viewBox="0 0 384 375" version="1.1" xmlns="http://www.w3.org/2000/svg" xmlns:xlink="http://www.w3.org/1999/xlink">
    <!-- Generator: Sketch 41.2 (35397) - http://www.bohemiancoding.com/sketch -->
    <title>social-1_logo-github</title>
    <desc>Created with Sketch.</desc>
    <defs></defs>
    <g id="Page-1" stroke="none" stroke-width="1" fill="none" fill-rule="evenodd">
        <g id="social-1_logo-github" fill="#FEAF77">
            <g id="Layer_1">
                <path d="M192,0.313995215 C86.4,0.313995215 0,86.7075359 0,192.299641 C0,277.493272 55.2,349.487889 130.8,374.686005 C140.4,375.885915 144,371.086274 144,365.086722 L144,332.689145 C90,344.688248 79.2,307.491029 79.2,307.491029 C70.8,285.892644 57.6,279.893092 57.6,279.893092 C39.6,267.893989 58.8,267.893989 58.8,267.893989 C78,269.0939 88.8,287.092554 88.8,287.092554 C105.6,315.890401 133.2,307.491029 145.2,302.691388 C146.4,290.692285 152.4,282.292913 157.2,277.493272 C114,272.69363 69.6,255.894886 69.6,182.700359 C69.6,162.301884 76.8,144.30323 88.8,131.104217 C86.4,126.304575 80.4,107.106011 91.2,80.7079844 C91.2,80.7079844 106.8,75.9083433 144,99.906549 C159.6,95.1069079 175.2,93.9069976 192,93.9069976 C208.8,93.9069976 224.4,96.3068182 240,99.906549 C277.2,74.708433 292.8,79.5080742 292.8,79.5080742 C303.6,105.9061 296.4,125.104665 295.2,129.904306 C307.2,143.103319 314.4,159.902063 314.4,181.500449 C314.4,254.694976 270,271.49372 226.8,276.293361 C234,282.292913 240,294.292016 240,312.29067 L240,365.086722 C240,369.886364 243.6,375.885915 253.2,374.686005 C328.8,349.487889 384,277.493272 384,192.299641 C384,86.7075359 297.6,0.313995215 192,0.313995215 Z" id="Shape"></path>
            </g>
        </g>
    </g>
</svg>