<?xml version="1.0" encoding="UTF-8"?>
<svg width="512px" height="512px" viewBox="0 0 512 512" version="1.1" xmlns="http://www.w3.org/2000/svg" xmlns:xlink="http://www.w3.org/1999/xlink">
    <!-- Generator: Sketch 41.2 (35397) - http://www.bohemiancoding.com/sketch -->
    <title>007-acoustic-guitar</title>
    <desc>Created with Sketch.</desc>
    <defs></defs>
    <g id="Page-1" stroke="none" stroke-width="1" fill="none" fill-rule="evenodd">
        <g id="007-acoustic-guitar">
            <g id="Layer_1">
                <path d="M256.001,0.001 C397.386,0.001 512,114.616 512,256.001 C512,397.386 397.386,511.999 256.001,511.999 C114.616,511.999 0,397.385 0,256.001 C0,114.617 114.616,0.001 256.001,0.001 Z" id="Shape" fill="#64989A"></path>
                <path d="M268.936,221.739 C257.051,212.063 245.166,202.387 232.378,200.552 C219.585,198.715 205.889,204.72 197.931,214.477 C189.972,224.231 187.752,237.737 181.356,245.958 C174.96,254.179 164.389,257.114 148.978,261.184 C133.567,265.253 113.319,270.454 96.592,284.823 C79.867,299.192 66.664,322.726 68.533,344.884 C71.809,383.685 129.217,441.095 168.019,444.369 C190.177,446.239 213.712,433.035 228.079,416.31 C242.448,399.585 247.65,379.335 251.718,363.924 C255.788,348.515 258.723,337.944 266.944,331.547 C275.165,325.151 288.671,322.931 298.425,314.971 C308.182,307.014 314.186,293.317 312.35,280.525 C310.567,268.097 301.382,256.522 291.986,244.974 C291.71,244.638 269.21,222.075 268.936,221.739 L268.936,221.739 Z" id="Shape" fill="#FEAF77"></path>
                <path d="M434.174,98.899 L414.002,78.729 L267.228,220.053 C269.837,222.709 287.626,240.546 292.779,245.743 L434.174,98.899 L434.174,98.899 Z" id="Shape" fill="#666666"></path>
                <polygon id="Shape" fill="#FBB429" points="197.281 371.077 141.824 315.62 131.742 325.704 187.197 381.159"></polygon>
                <polygon id="Shape" fill="#FEAF77" points="434.174 98.899 423.525 88.25 414.002 78.729 423.222 55.886 456.997 89.695"></polygon>
                <path d="M491.164,55.528 L457.373,21.737 L423.222,55.887 C425.849,58.524 451.829,84.516 456.997,89.696 L491.164,55.528 Z" id="Shape" fill="#FF5B61"></path>
                <path d="M242.962,269.939 C230.477,257.455 210.234,257.455 197.747,269.939 C185.263,282.426 185.264,302.67 197.747,315.154 C210.234,327.638 230.475,327.638 242.962,315.154 C255.446,302.668 255.446,282.426 242.962,269.939 Z" id="Shape" fill="#EC4B53"></path>
                <polygon id="Shape" fill="#FBB429" points="178.939 372.861 140.04 333.964 133.197 340.806 172.096 379.704"></polygon>
                <path d="M178.939,372.861 L140.04,333.964 L142.021,331.983 C143.111,330.894 144.894,330.894 145.983,331.983 L180.918,366.918 C182.008,368.008 182.008,369.791 180.918,370.88 L178.939,372.861 Z" id="Shape" fill="#FFFFFF"></path>
                <path d="M240.124,202.597 C227.594,201.16 214.348,207.108 206.574,216.636 C198.615,226.393 196.394,239.898 189.998,248.118 C183.602,256.34 173.031,259.275 157.621,263.343 C142.211,267.413 121.961,272.616 105.236,286.983 C88.511,301.352 75.306,324.885 77.177,347.045 C80.114,381.856 126.622,431.643 164.176,443.879 C125.54,437.383 71.699,382.423 68.532,344.883 C67.586,333.666 70.502,322.096 75.781,311.541 C80.933,301.246 88.334,291.916 96.591,284.822 C102.123,280.069 108.039,276.322 114.04,273.283 C126.181,267.137 138.663,263.906 148.977,261.183 C164.388,257.113 174.959,254.178 181.355,245.957 C187.751,237.736 189.971,224.23 197.93,214.476 C205.888,204.719 219.584,198.715 232.377,200.551 C234.995,200.927 237.575,201.63 240.124,202.597 L240.124,202.597 Z" id="Shape" fill="#EC4B53"></path>
                <path d="M173.202,360.606 L431.534,96.226 L429.206,93.966 L170.872,358.346 L173.202,360.606 Z M154.555,342.03 L154.555,342.03 L152.295,339.7 L416.675,81.368 L418.935,83.696 L154.555,342.03 Z M161.438,347.483 L161.438,347.483 L159.152,345.174 L420.865,85.578 L423.148,87.885 L161.438,347.483 Z M167.728,353.749 L167.728,353.749 L165.42,351.463 L425.016,89.753 L427.323,92.036 L167.728,353.749 Z" id="Shape" fill="#FFFFFF"></path>
                <polygon id="Shape" fill="#ECF0F1" points="489.487 66.228 445.813 22.554 442.894 25.474 486.567 69.147"></polygon>
                <g id="Group" transform="translate(440.000000, 19.000000)" fill="#20D0C2">
                    <path d="M51.977,46.708 L49.674,44.404 C49.263,43.993 48.595,43.994 48.184,44.406 L43.939,48.65 C43.529,49.061 43.528,49.731 43.935,50.14 L46.239,52.444 C46.65,52.853 47.32,52.854 47.731,52.444 L51.976,48.198 C52.388,47.786 52.387,47.116 51.977,46.708 Z" id="Shape"></path>
                    <path d="M8.636,3.366 L6.332,1.063 C5.923,0.652 5.255,0.654 4.842,1.064 L0.598,5.31 C0.187,5.719 0.185,6.389 0.594,6.799 L2.9,9.103 C3.309,9.512 3.98,9.513 4.391,9.103 L8.636,4.857 C9.046,4.447 9.046,3.776 8.636,3.366 Z" id="Shape"></path>
                </g>
                <polygon id="Shape" fill="#ECF0F1" points="478.89 76.824 435.217 33.152 432.296 36.072 475.971 79.745"></polygon>
                <g id="Group" transform="translate(429.000000, 30.000000)" fill="#20D0C2">
                    <path d="M52.381,46.304 L50.075,44 C49.666,43.591 48.996,43.592 48.585,44.004 L44.341,48.249 C43.93,48.658 43.928,49.328 44.339,49.739 L46.643,52.041 C47.052,52.452 47.724,52.453 48.133,52.041 L52.38,47.797 C52.79,47.385 52.789,46.714 52.381,46.304 L52.381,46.304 Z" id="Shape"></path>
                    <path d="M9.04,2.964 L6.736,0.658 C6.325,0.249 5.656,0.249 5.246,0.662 L1,4.906 C0.591,5.317 0.59,5.987 0.999,6.395 L3.302,8.699 C3.713,9.11 4.384,9.11 4.793,8.699 L9.04,4.455 C9.449,4.043 9.448,3.372 9.04,2.964 L9.04,2.964 Z" id="Shape"></path>
                </g>
                <polygon id="Shape" fill="#ECF0F1" points="468.294 87.422 424.619 43.749 421.7 46.668 465.373 90.341"></polygon>
                <g id="Group" transform="translate(419.000000, 40.000000)" fill="#20D0C2">
                    <path d="M51.783,46.902 L49.48,44.598 C49.069,44.187 48.401,44.188 47.99,44.599 L43.744,48.844 C43.335,49.254 43.334,49.925 43.742,50.334 L46.046,52.638 C46.457,53.047 47.127,53.048 47.538,52.638 L51.783,48.392 C52.194,47.98 52.193,47.31 51.783,46.902 Z" id="Shape"></path>
                    <path d="M8.442,3.56 L6.138,1.257 C5.729,0.846 5.061,0.848 4.648,1.258 L0.404,5.504 C-0.007,5.913 -0.007,6.583 0.4,6.993 L2.706,9.297 C3.115,9.706 3.786,9.708 4.197,9.297 L8.442,5.051 C8.853,4.641 8.852,3.971 8.442,3.56 Z" id="Shape"></path>
                </g>
            </g>
        </g>
    </g>
</svg>